<?xml version="1.0" encoding="utf-8"?><!-- Uploaded to: SVG Repo, www.svgrepo.com, Generator: SVG Repo Mixer Tools -->
<svg fill="#000000" width="800px" height="800px" viewBox="0 0 24 24" id="down-alt-circle" data-name="Flat Line" xmlns="http://www.w3.org/2000/svg" class="icon flat-line"><path id="secondary" d="M12,21a9,9,0,1,0-9-9A9,9,0,0,0,12,21ZM9.41,12H10V8a1,1,0,0,1,1-1h2a1,1,0,0,1,1,1v4h.59a1,1,0,0,1,.7,1.71l-2.58,2.58a1,1,0,0,1-1.42,0L8.71,13.71A1,1,0,0,1,9.41,12Z" style="fill: rgb(44, 169, 188); stroke-width: 2;"></path><path id="primary" d="M9.41,12H10V8a1,1,0,0,1,1-1h2a1,1,0,0,1,1,1v4h.59a1,1,0,0,1,.7,1.71l-2.58,2.58a1,1,0,0,1-1.42,0L8.71,13.71A1,1,0,0,1,9.41,12ZM12,21a9,9,0,1,0-9-9A9,9,0,0,0,12,21Z" style="fill: none; stroke: rgb(0, 0, 0); stroke-linecap: round; stroke-linejoin: round; stroke-width: 2;"></path></svg>