<?xml version="1.0" encoding="utf-8"?><!-- Uploaded to: SVG Repo, www.svgrepo.com, Generator: SVG Repo Mixer Tools -->
<svg fill="#000000" width="800px" height="800px" viewBox="0 0 24 24" id="up-alt-circle" data-name="Flat Line" xmlns="http://www.w3.org/2000/svg" class="icon flat-line"><path id="secondary" d="M12,3a9,9,0,1,0,9,9A9,9,0,0,0,12,3Zm2.59,9H14v4a1,1,0,0,1-1,1H11a1,1,0,0,1-1-1V12H9.41a1,1,0,0,1-.7-1.71l2.58-2.58a1,1,0,0,1,1.42,0l2.58,2.58A1,1,0,0,1,14.59,12Z" style="fill: rgb(44, 169, 188); stroke-width: 2;"></path><path id="primary" d="M14.59,12H14v4a1,1,0,0,1-1,1H11a1,1,0,0,1-1-1V12H9.41a1,1,0,0,1-.7-1.71l2.58-2.58a1,1,0,0,1,1.42,0l2.58,2.58A1,1,0,0,1,14.59,12ZM12,3a9,9,0,1,0,9,9A9,9,0,0,0,12,3Z" style="fill: none; stroke: rgb(0, 0, 0); stroke-linecap: round; stroke-linejoin: round; stroke-width: 2;"></path></svg>