<?xml version="1.0" encoding="iso-8859-1"?>
<!-- Uploaded to: SVG Repo, www.svgrepo.com, Generator: SVG Repo Mixer Tools -->
<svg height="800px" width="800px" version="1.1" id="Layer_1" xmlns="http://www.w3.org/2000/svg" xmlns:xlink="http://www.w3.org/1999/xlink" 
	 viewBox="0 0 511.573 511.573" xml:space="preserve">
<g transform="translate(1 1)">
	<g>
		<path style="fill:#FFDD09;" d="M79.853,446.787c-2.56,0-4.267-0.853-5.973-2.56c-99.84-99.84-99.84-261.973,0-361.813
			c3.413-3.413,8.533-3.413,11.947,0c3.413,3.413,3.413,8.533,0,11.947c-93.013,93.013-93.013,244.907,0,337.92
			c3.413,3.413,3.413,8.533,0,11.947C84.12,445.933,82.413,446.787,79.853,446.787z"/>
		<path style="fill:#FFDD09;" d="M429.72,446.787c-2.56,0-4.267-0.853-5.973-2.56c-3.413-3.413-3.413-8.533,0-11.947
			c93.013-93.013,93.013-244.907,0-337.92c-3.413-3.413-3.413-8.533,0-11.947c3.413-3.413,8.533-3.413,11.947,0
			c99.84,99.84,99.84,261.973,0,361.813C433.987,445.933,432.28,446.787,429.72,446.787z"/>
		<path style="fill:#FFDD09;" d="M433.987,250.52c0,98.987-80.213,179.2-179.2,179.2s-179.2-80.213-179.2-179.2
			s80.213-179.2,179.2-179.2S433.987,151.533,433.987,250.52"/>
	</g>
	<path style="fill:#FD9808;" d="M254.787,71.32c-4.267,0-8.533,0-12.8,0.853c93.013,5.973,166.4,83.627,166.4,178.347
		S335,422.893,241.987,428.867c4.267,0,8.533,0.853,12.8,0.853c98.987,0,179.2-80.213,179.2-179.2S353.773,71.32,254.787,71.32"/>
	<path style="fill:#FFFFFF;" d="M254.787,71.32c4.267,0,8.533,0,12.8,0.853c-93.013,5.973-166.4,83.627-166.4,178.347
		s73.387,172.373,166.4,178.347c-4.267,0.853-8.533,0.853-12.8,0.853c-98.987,0-179.2-80.213-179.2-179.2S155.8,71.32,254.787,71.32
		"/>
	<g>
		<path style="fill:#1CD759;" d="M254.787,293.187L254.787,293.187c-9.387,0-17.067-7.68-17.067-17.067V131.053
			c0-9.387,7.68-17.067,17.067-17.067l0,0c9.387,0,17.067,7.68,17.067,17.067V276.12
			C271.853,285.507,264.173,293.187,254.787,293.187"/>
		<path style="fill:#1CD759;" d="M280.387,361.453c0,14.507-11.093,25.6-25.6,25.6s-25.6-11.093-25.6-25.6
			c0-14.507,11.093-25.6,25.6-25.6S280.387,346.947,280.387,361.453"/>
	</g>
	<path d="M254.787,438.253c-103.253,0-187.733-84.48-187.733-187.733s84.48-187.733,187.733-187.733S442.52,147.267,442.52,250.52
		S358.04,438.253,254.787,438.253z M254.787,79.853c-93.867,0-170.667,76.8-170.667,170.667s76.8,170.667,170.667,170.667
		s170.667-76.8,170.667-170.667S348.653,79.853,254.787,79.853z"/>
	<path d="M79.853,433.987c-2.56,0-4.267-0.853-5.973-2.56c-99.84-99.84-99.84-261.973,0-361.813c3.413-3.413,8.533-3.413,11.947,0
		c3.413,3.413,3.413,8.533,0,11.947c-93.013,93.013-93.013,244.907,0,337.92c3.413,3.413,3.413,8.533,0,11.947
		C84.12,433.133,82.413,433.987,79.853,433.987z"/>
	<path d="M429.72,433.987c-2.56,0-4.267-0.853-5.973-2.56c-3.413-3.413-3.413-8.533,0-11.947c93.013-93.013,93.013-244.907,0-337.92
		c-3.413-3.413-3.413-8.533,0-11.947c3.413-3.413,8.533-3.413,11.947,0c99.84,99.84,99.84,261.973,0,361.813
		C433.987,433.133,432.28,433.987,429.72,433.987z"/>
	<path d="M254.787,301.72c-14.507,0-25.6-11.093-25.6-25.6V131.053c0-14.507,11.093-25.6,25.6-25.6s25.6,11.093,25.6,25.6V276.12
		C280.387,290.627,269.293,301.72,254.787,301.72z M254.787,122.52c-5.12,0-8.533,3.413-8.533,8.533V276.12
		c0,5.12,3.413,8.533,8.533,8.533c5.12,0,8.533-3.413,8.533-8.533V131.053C263.32,125.933,259.907,122.52,254.787,122.52z"/>
	<path d="M254.787,395.587c-18.773,0-34.133-15.36-34.133-34.133c0-18.773,15.36-34.133,34.133-34.133s34.133,15.36,34.133,34.133
		C288.92,380.227,273.56,395.587,254.787,395.587z M254.787,344.387c-9.387,0-17.067,7.68-17.067,17.067s7.68,17.067,17.067,17.067
		c9.387,0,17.067-7.68,17.067-17.067S264.173,344.387,254.787,344.387z"/>
</g>
</svg>